<svg xmlns="http://www.w3.org/2000/svg" version="1.1" xmlns:xlink="http://www.w3.org/1999/xlink" xmlns:svgjs="http://svgjs.dev/svgjs" width="1000" height="1000" viewBox="0 0 1000 1000"><rect width="1000" height="1000" fill="#000000"></rect><g transform="matrix(0.7,0,0,0.7,149.57576689195082,282.1265587044535)"><svg viewBox="0 0 396 247" data-background-color="#2d3b57" preserveAspectRatio="xMidYMid meet" height="623" width="1000" xmlns="http://www.w3.org/2000/svg" xmlns:xlink="http://www.w3.org/1999/xlink"><g id="tight-bounds" transform="matrix(1,0,0,1,0.23999479557517134,-0.09999999999999432)"><svg viewBox="0 0 395.52 247.2" height="247.2" width="395.52"><g><svg></svg></g><g><svg viewBox="0 0 395.52 247.2" height="247.2" width="395.52"><g><g><path xmlns="http://www.w3.org/2000/svg" d="M0.988 218.572l0-4.23h164.525v4.23zM0.988 28.379h161.983l0 4.479-161.983 0zM309.703 26.086c15.484 0 29.705 1.562 42.664 4.685 2.603 0.629 5.168 1.325 7.697 2.087l-96.002 0c13.547-4.515 28.761-6.772 45.641-6.772zM358.497 215.482c-13.623 3.755-28.11 5.632-43.461 5.632-18.472 0-34.805-2.257-49-6.772l96.371 0c-1.288 0.393-2.591 0.773-3.91 1.14z" fill="#ffffff" fill-rule="nonzero" stroke="none" stroke-width="1" stroke-linecap="butt" stroke-linejoin="miter" stroke-miterlimit="10" stroke-dasharray="" stroke-dashoffset="0" font-family="none" font-weight="none" font-size="none" text-anchor="none" style="mix-blend-mode: normal" data-fill-palette-color="tertiary"></path></g></g><g transform="matrix(1,0,0,1,0,41.218358520514954)"><svg viewBox="0 0 395.52 164.76328295897008" height="164.76328295897008" width="395.52"><g><svg viewBox="0 0 395.52 164.76328295897008" height="164.76328295897008" width="395.52"><g><svg viewBox="0 0 395.52 164.76328295897008" height="164.76328295897008" width="395.52"><g transform="matrix(1,0,0,1,0,99.10296454541147)"><svg viewBox="0 0 395.52 65.6603184135586" height="65.6603184135586" width="395.52"><g><svg viewBox="0 0 395.52 65.6603184135586" height="65.6603184135586" width="395.52"><g><svg viewBox="0 0 395.52 35.41403826680168" height="35.41403826680168" width="395.52"><g transform="matrix(1,0,0,1,0,0)"><svg width="395.52" viewBox="5.420000076293945 -40.5 458.04998779296875 41.0099983215332" height="35.41403826680168" data-palette-color="#ffffff"><path d="M5.42 0L5.42-38.16 37.92-38.16 37.92-31.37 13.16-31.37 13.16-23.75 35.08-23.75 35.08-17.38 13.16-17.38 13.16-6.76 38.43-6.76 38.43 0 5.42 0ZM44.38-14.33L44.38-14.33Q44.38-17.5 45.54-20.25 46.7-23 48.94-25.01 51.17-27.03 54.4-28.17 57.64-29.32 61.79-29.32L61.79-29.32Q63.6-29.32 65.43-29.1 67.26-28.88 68.96-28.48 70.65-28.08 72.14-27.53 73.63-26.98 74.73-26.32L74.73-26.32 71.38-20.87Q69.02-21.97 66.9-22.49 64.79-23 62.62-23L62.62-23Q60.13-23 58.15-22.35 56.17-21.7 54.79-20.54 53.42-19.38 52.7-17.81 51.98-16.24 51.98-14.38L51.98-14.38Q51.98-12.52 52.74-10.95 53.51-9.38 54.92-8.24 56.32-7.1 58.31-6.46 60.3-5.81 62.74-5.81L62.74-5.81Q65.43-5.81 67.81-6.57 70.19-7.32 72.24-8.59L72.24-8.59 75.58-3.15Q74.29-2.37 72.78-1.7 71.26-1.03 69.54-0.54 67.82-0.05 65.93 0.23 64.04 0.51 62.01 0.51L62.01 0.51Q57.88 0.51 54.61-0.61 51.34-1.73 49.07-3.72 46.8-5.71 45.59-8.42 44.38-11.13 44.38-14.33ZM81.64-14.4L81.64-14.4Q81.64-17.5 82.89-20.21 84.15-22.92 86.48-24.95 88.81-26.98 92.12-28.15 95.43-29.32 99.56-29.32L99.56-29.32Q103.68-29.32 106.99-28.15 110.3-26.98 112.63-24.95 114.96-22.92 116.22-20.21 117.48-17.5 117.48-14.4L117.48-14.4Q117.48-11.3 116.22-8.59 114.96-5.88 112.63-3.86 110.3-1.83 106.99-0.66 103.68 0.51 99.56 0.51L99.56 0.51Q95.43 0.51 92.12-0.66 88.81-1.83 86.48-3.86 84.15-5.88 82.89-8.59 81.64-11.3 81.64-14.4ZM89.23-14.4L89.23-14.4Q89.23-12.67 89.92-11.12 90.62-9.57 91.95-8.39 93.28-7.2 95.2-6.51 97.11-5.81 99.56-5.81L99.56-5.81Q102-5.81 103.91-6.51 105.83-7.2 107.16-8.39 108.49-9.57 109.19-11.12 109.88-12.67 109.88-14.4L109.88-14.4Q109.88-16.14 109.19-17.7 108.49-19.26 107.16-20.45 105.83-21.63 103.91-22.33 102-23.02 99.56-23.02L99.56-23.02Q97.11-23.02 95.2-22.33 93.28-21.63 91.95-20.45 90.62-19.26 89.92-17.7 89.23-16.14 89.23-14.4ZM139.96-19.31L139.96-19.31Q139.96-23.39 141.49-26.92 143.03-30.44 145.95-33.04 148.87-35.64 153.08-37.13 157.29-38.62 162.61-38.62L162.61-38.62Q167.28-38.62 171.17-37.68 175.06-36.74 178.41-34.81L178.41-34.81 174.84-28.96Q173.84-29.61 172.54-30.13 171.23-30.64 169.75-30.99 168.28-31.35 166.7-31.54 165.13-31.74 163.59-31.74L163.59-31.74Q159.88-31.74 156.97-30.82 154.07-29.91 152.08-28.26 150.09-26.61 149.05-24.33 148.01-22.05 148.01-19.31L148.01-19.31Q148.01-16.48 149.09-14.11 150.16-11.74 152.2-10.02 154.24-8.3 157.18-7.34 160.12-6.37 163.83-6.37L163.83-6.37Q165.52-6.37 167.18-6.62 168.84-6.86 170.39-7.29 171.94-7.71 173.38-8.31 174.82-8.91 176.06-9.62L176.06-9.62 179.63-3.76Q176.5-1.76 172.4-0.62 168.3 0.51 163.69 0.51L163.69 0.51Q157.8 0.51 153.36-1.01 148.92-2.54 145.94-5.21 142.96-7.89 141.46-11.51 139.96-15.14 139.96-19.31ZM185.51-14.4L185.51-14.4Q185.51-17.5 186.77-20.21 188.02-22.92 190.36-24.95 192.69-26.98 196-28.15 199.3-29.32 203.43-29.32L203.43-29.32Q207.56-29.32 210.86-28.15 214.17-26.98 216.5-24.95 218.84-22.92 220.09-20.21 221.35-17.5 221.35-14.4L221.35-14.4Q221.35-11.3 220.09-8.59 218.84-5.88 216.5-3.86 214.17-1.83 210.86-0.66 207.56 0.51 203.43 0.51L203.43 0.51Q199.3 0.51 196-0.66 192.69-1.83 190.36-3.86 188.02-5.88 186.77-8.59 185.51-11.3 185.51-14.4ZM193.1-14.4L193.1-14.4Q193.1-12.67 193.8-11.12 194.49-9.57 195.82-8.39 197.16-7.2 199.07-6.51 200.99-5.81 203.43-5.81L203.43-5.81Q205.87-5.81 207.79-6.51 209.7-7.2 211.03-8.39 212.37-9.57 213.06-11.12 213.76-12.67 213.76-14.4L213.76-14.4Q213.76-16.14 213.06-17.7 212.37-19.26 211.03-20.45 209.7-21.63 207.79-22.33 205.87-23.02 203.43-23.02L203.43-23.02Q200.99-23.02 199.07-22.33 197.16-21.63 195.82-20.45 194.49-19.26 193.8-17.7 193.1-16.14 193.1-14.4ZM228.84 0L228.84-40.5 236.07-40.5 236.07 0 228.84 0ZM245.51 0L245.51-40.5 252.74-40.5 252.74 0 245.51 0ZM260.62-14.5L260.62-14.5Q260.62-17.43 261.82-20.1 263.02-22.78 265.26-24.83 267.51-26.88 270.77-28.1 274.03-29.32 278.18-29.32L278.18-29.32Q282.3-29.32 285.61-28.09 288.92-26.86 291.23-24.71 293.53-22.56 294.77-19.65 296-16.75 296-13.43L296-13.43Q296-13.01 295.99-12.54 295.98-12.06 295.93-11.67L295.93-11.67 268.68-11.67Q269.15-10.38 270.18-9.3 271.22-8.23 272.78-7.45 274.35-6.67 276.4-6.24 278.45-5.81 280.94-5.81L280.94-5.81Q283.43-5.81 285.89-6.34 288.36-6.86 290.61-7.67L290.61-7.67 293.05-2.15Q291.63-1.49 290.18-0.99 288.73-0.49 287.15-0.16 285.58 0.17 283.85 0.34 282.13 0.51 280.23 0.51L280.23 0.51Q275.37 0.51 271.71-0.66 268.05-1.83 265.58-3.86 263.11-5.88 261.87-8.62 260.62-11.35 260.62-14.5ZM268.68-17.31L288.33-17.31Q287.94-18.51 287.13-19.54 286.31-20.58 285.09-21.35 283.87-22.12 282.26-22.56 280.64-23 278.72-23L278.72-23Q276.66-23 274.98-22.53 273.3-22.07 272.03-21.29 270.76-20.51 269.91-19.48 269.07-18.46 268.68-17.31L268.68-17.31ZM302.03-14.33L302.03-14.33Q302.03-17.5 303.19-20.25 304.35-23 306.58-25.01 308.82-27.03 312.05-28.17 315.29-29.32 319.44-29.32L319.44-29.32Q321.24-29.32 323.07-29.1 324.9-28.88 326.6-28.48 328.3-28.08 329.79-27.53 331.28-26.98 332.37-26.32L332.37-26.32 329.03-20.87Q326.66-21.97 324.55-22.49 322.44-23 320.27-23L320.27-23Q317.78-23 315.8-22.35 313.82-21.7 312.44-20.54 311.06-19.38 310.34-17.81 309.62-16.24 309.62-14.38L309.62-14.38Q309.62-12.52 310.39-10.95 311.16-9.38 312.56-8.24 313.97-7.1 315.96-6.46 317.95-5.81 320.39-5.81L320.39-5.81Q323.07-5.81 325.45-6.57 327.83-7.32 329.88-8.59L329.88-8.59 333.23-3.15Q331.94-2.37 330.42-1.7 328.91-1.03 327.19-0.54 325.47-0.05 323.57 0.23 321.68 0.51 319.66 0.51L319.66 0.51Q315.53 0.51 312.26-0.61 308.99-1.73 306.72-3.72 304.45-5.71 303.24-8.42 302.03-11.13 302.03-14.33ZM345.36 0L345.36-23.39 338.4-23.39 338.4-28.81 345.36-28.81 345.36-37.77 352.59-37.77 352.59-28.81 359.55-28.81 359.55-23.39 352.59-23.39 352.59 0 345.36 0ZM364.23-14.4L364.23-14.4Q364.23-17.5 365.49-20.21 366.74-22.92 369.08-24.95 371.41-26.98 374.72-28.15 378.02-29.32 382.15-29.32L382.15-29.32Q386.28-29.32 389.58-28.15 392.89-26.98 395.22-24.95 397.56-22.92 398.81-20.21 400.07-17.5 400.07-14.4L400.07-14.4Q400.07-11.3 398.81-8.59 397.56-5.88 395.22-3.86 392.89-1.83 389.58-0.66 386.28 0.51 382.15 0.51L382.15 0.51Q378.02 0.51 374.72-0.66 371.41-1.83 369.08-3.86 366.74-5.88 365.49-8.59 364.23-11.3 364.23-14.4ZM371.82-14.4L371.82-14.4Q371.82-12.67 372.52-11.12 373.21-9.57 374.55-8.39 375.88-7.2 377.79-6.51 379.71-5.81 382.15-5.81L382.15-5.81Q384.59-5.81 386.51-6.51 388.42-7.2 389.76-8.39 391.09-9.57 391.78-11.12 392.48-12.67 392.48-14.4L392.48-14.4Q392.48-16.14 391.78-17.7 391.09-19.26 389.76-20.45 388.42-21.63 386.51-22.33 384.59-23.02 382.15-23.02L382.15-23.02Q379.71-23.02 377.79-22.33 375.88-21.63 374.55-20.45 373.21-19.26 372.52-17.7 371.82-16.14 371.82-14.4ZM407.37 0L407.37-28.81 414.59-28.81 414.59-24.66Q416.99-26.44 419.65-27.73 422.31-29.03 424.95-29.71L424.95-29.71 427.07-23.1Q422.89-22.68 419.73-21.23 416.57-19.78 414.59-17.14L414.59-17.14 414.59 0 407.37 0ZM430.46-3.37L433.59-8.84Q436.52-7.08 440.03-6.25 443.55-5.42 447.23-5.42L447.23-5.42Q449.72-5.42 451.38-5.76 453.04-6.1 454.04-6.64 455.05-7.18 455.46-7.86 455.88-8.54 455.88-9.25L455.88-9.25Q455.88-10.28 454.98-11.01 454.09-11.74 452.04-11.74L452.04-11.74Q451.09-11.74 449.99-11.62 448.89-11.5 447.68-11.36 446.48-11.23 445.17-11.11 443.86-10.99 442.52-10.99L442.52-10.99Q439.59-10.99 437.53-11.62 435.47-12.26 434.17-13.35 432.88-14.45 432.29-15.95 431.71-17.46 431.71-19.19L431.71-19.19Q431.71-21.39 432.73-23.24 433.76-25.1 435.66-26.45 437.57-27.81 440.26-28.56 442.96-29.32 446.28-29.32L446.28-29.32Q448.01-29.32 449.91-29.11 451.8-28.91 453.63-28.56 455.46-28.22 457.15-27.77 458.83-27.32 460.12-26.81L460.12-26.81 457.85-21.19Q455.09-22.22 452.35-22.81 449.6-23.41 446.7-23.41L446.7-23.41Q444.67-23.41 443.27-23.11 441.86-22.8 440.98-22.3 440.1-21.8 439.7-21.15 439.3-20.51 439.3-19.8L439.3-19.8Q439.3-19.29 439.51-18.87 439.71-18.46 440.19-18.15 440.67-17.85 441.43-17.69 442.2-17.53 443.33-17.53L443.33-17.53Q444.35-17.53 445.5-17.65 446.65-17.77 447.89-17.91 449.14-18.04 450.47-18.16 451.8-18.29 453.19-18.29L453.19-18.29Q455.78-18.29 457.72-17.68 459.66-17.07 460.93-15.97 462.2-14.87 462.83-13.38 463.47-11.89 463.47-10.13L463.47-10.13Q463.47-7.86 462.42-5.91 461.37-3.96 459.29-2.53 457.22-1.1 454.13-0.29 451.04 0.51 446.99 0.51L446.99 0.51Q444.5 0.51 442.18 0.21 439.86-0.1 437.76-0.62 435.66-1.15 433.82-1.86 431.97-2.56 430.46-3.37L430.46-3.37Z" opacity="1" transform="matrix(1,0,0,1,0,0)" fill="#ffffff" class="undefined-text-0" data-fill-palette-color="primary" id="text-0"></path></svg></g></svg></g><g transform="matrix(1,0,0,1,0,43.77444276467516)"><svg viewBox="0 0 395.52 21.885875648883438" height="21.885875648883438" width="395.52"><g transform="matrix(1,0,0,1,0,0)"><svg width="395.52" viewBox="2.049999952316284 -35.5 650.5900268554688 36" height="21.885875648883438" data-palette-color="#ffffff"><path d="M2.05 0L2.05-35 9.9-35 13.4-9.95 13.5-9.95 17-35 24.85-35 24.85 0 19.65 0 19.65-26.5 19.55-26.5 15.55 0 10.95 0 6.95-26.5 6.85-26.5 6.85 0 2.05 0ZM49.58 0L55.28-35 62.73-35 68.43 0 62.93 0 61.93-6.95 61.93-6.85 55.68-6.85 54.68 0 49.58 0ZM56.33-11.6L61.28-11.6 58.83-28.9 58.73-28.9 56.33-11.6ZM93.15 0L93.15-35 98.65-35 98.65-20.25 105.65-35 111.15-35 104.6-22.15 111.25 0 105.5 0 100.85-15.6 98.65-11.15 98.65 0 93.15 0ZM135.93 0L135.93-35 150.93-35 150.93-30 141.43-30 141.43-20.75 148.98-20.75 148.98-15.75 141.43-15.75 141.43-5 150.93-5 150.93 0 135.93 0ZM206.24 0L206.24-35 211.74-35 211.74 0 206.24 0ZM245.06 0.5Q241.06 0.5 239.01-1.78 236.96-4.05 236.96-8.3L236.96-8.3 236.96-10.3 242.16-10.3 242.16-7.9Q242.16-4.5 245.01-4.5L245.01-4.5Q246.41-4.5 247.14-5.33 247.86-6.15 247.86-8L247.86-8Q247.86-10.2 246.86-11.88 245.86-13.55 243.16-15.9L243.16-15.9Q239.76-18.9 238.41-21.33 237.06-23.75 237.06-26.8L237.06-26.8Q237.06-30.95 239.16-33.23 241.26-35.5 245.26-35.5L245.26-35.5Q249.21-35.5 251.24-33.23 253.26-30.95 253.26-26.7L253.26-26.7 253.26-25.25 248.06-25.25 248.06-27.05Q248.06-28.85 247.36-29.68 246.66-30.5 245.31-30.5L245.31-30.5Q242.56-30.5 242.56-27.15L242.56-27.15Q242.56-25.25 243.59-23.6 244.61-21.95 247.31-19.6L247.31-19.6Q250.76-16.6 252.06-14.15 253.36-11.7 253.36-8.4L253.36-8.4Q253.36-4.1 251.24-1.8 249.11 0.5 245.06 0.5L245.06 0.5ZM278.59 0L278.59-35 286.74-35Q290.99-35 292.94-33.02 294.89-31.05 294.89-26.95L294.89-26.95 294.89-24.8Q294.89-19.35 291.29-17.9L291.29-17.9 291.29-17.8Q293.29-17.2 294.12-15.35 294.94-13.5 294.94-10.4L294.94-10.4 294.94-4.25Q294.94-2.75 295.04-1.83 295.14-0.9 295.54 0L295.54 0 289.94 0Q289.64-0.85 289.54-1.6 289.44-2.35 289.44-4.3L289.44-4.3 289.44-10.7Q289.44-13.1 288.67-14.05 287.89-15 285.99-15L285.99-15 284.09-15 284.09 0 278.59 0ZM284.09-20L286.09-20Q287.74-20 288.57-20.85 289.39-21.7 289.39-23.7L289.39-23.7 289.39-26.4Q289.39-28.3 288.72-29.15 288.04-30 286.59-30L286.59-30 284.09-30 284.09-20ZM319.37 0L325.07-35 332.52-35 338.22 0 332.72 0 331.72-6.95 331.72-6.85 325.47-6.85 324.47 0 319.37 0ZM326.12-11.6L331.07-11.6 328.62-28.9 328.52-28.9 326.12-11.6ZM362.95 0L362.95-35 377.95-35 377.95-30 368.45-30 368.45-20.75 376-20.75 376-15.75 368.45-15.75 368.45-5 377.95-5 377.95 0 362.95 0ZM403.17 0L403.17-35 408.67-35 408.67-5 417.72-5 417.72 0 403.17 0ZM480.28 0.5Q476.33 0.5 474.25-1.75 472.18-4 472.18-8.1L472.18-8.1 472.18-26.9Q472.18-31 474.25-33.25 476.33-35.5 480.28-35.5L480.28-35.5Q484.23-35.5 486.3-33.25 488.38-31 488.38-26.9L488.38-26.9 488.38-23.2 483.18-23.2 483.18-27.25Q483.18-30.5 480.43-30.5L480.43-30.5Q477.68-30.5 477.68-27.25L477.68-27.25 477.68-7.7Q477.68-4.5 480.43-4.5L480.43-4.5Q483.18-4.5 483.18-7.7L483.18-7.7 483.18-13.05 488.38-13.05 488.38-8.1Q488.38-4 486.3-1.75 484.23 0.5 480.28 0.5L480.28 0.5ZM513.76 0L513.76-35 519.26-35 519.26-5 528.31-5 528.31 0 513.76 0ZM553.03 0L553.03-35 568.03-35 568.03-30 558.53-30 558.53-20.75 566.08-20.75 566.08-15.75 558.53-15.75 558.53-5 568.03-5 568.03 0 553.03 0ZM591.81 0L597.51-35 604.96-35 610.66 0 605.16 0 604.16-6.95 604.16-6.85 597.91-6.85 596.91 0 591.81 0ZM598.56-11.6L603.51-11.6 601.06-28.9 600.96-28.9 598.56-11.6ZM635.39 0L635.39-35 642.29-35 647.64-14.05 647.74-14.05 647.74-35 652.64-35 652.64 0 646.99 0 640.39-25.55 640.29-25.55 640.29 0 635.39 0Z" opacity="1" transform="matrix(1,0,0,1,0,0)" fill="#ffffff" class="undefined-text-1" data-fill-palette-color="secondary" id="text-1"></path></svg></g></svg></g></svg></g></svg></g><g transform="matrix(1,0,0,1,151.45709768740758,0)"><svg viewBox="0 0 92.6058046251848 90.74256004753799" height="90.74256004753799" width="92.6058046251848"><g><svg xmlns="http://www.w3.org/2000/svg" xmlns:xlink="http://www.w3.org/1999/xlink" version="1.1" x="0" y="0" viewBox="5.400000095367432 7.514998435974121 74.50199890136719 73.00300598144531" enable-background="new 0 0 90 90" xml:space="preserve" height="90.74256004753799" width="92.6058046251848" class="icon-icon-0" data-fill-palette-color="accent" id="icon-0"><polygon fill="#ffffff" points="41.877,34.694 35.792,34.694 29.707,34.694 28.788,36.476 28.788,40.894 28.788,41.583   28.788,52.489 28.788,55.129 28.788,59.318 29.707,61.1 35.792,61.1 41.877,61.1 42.796,59.318 42.796,55.129 42.796,52.489   42.796,41.583 42.796,40.894 42.796,36.476 " data-fill-palette-color="accent"></polygon><path fill="#ffffff" d="M56.24 56.64c0 0 0-31.79 0-33.971s-0.688-3.329-0.688-3.329-1.493-2.412-2.068-3.445c-0.573-1.033-0.455-2.631-0.455-2.631l-0.004-5.746-3.422-0.003v0h-0.125-0.127v0L45.93 7.518l-0.003 5.746c0 0 0.118 1.599-0.456 2.631-0.574 1.033-2.067 3.445-2.067 3.445s-0.688 1.148-0.688 3.329c0 0.705 0 4.509 0 9.332h0.916l1.104 2.146v5.318 0.83 13.132 3.18 1.423c1.696 0 4.546 0 4.731 0 0 0 0.016 0 0.022 0 0.23 0 4.601 0 5.718 0C56.356 58.029 56.24 56.64 56.24 56.64z" data-fill-palette-color="accent"></path><path fill="#ffffff" d="M64.88 42.144L64.88 42.144l-5.828-0.001v8.883h5.828c3.393 0.001 6.141 2.75 6.141 6.141 0 3.393-2.748 6.141-6.141 6.142H19.958v-8.278L5.4 67.773l14.558 12.745v-8.329H64.88c8.298-0.001 15.022-6.727 15.022-15.023C79.902 48.87 73.178 42.144 64.88 42.144z" data-fill-palette-color="accent"></path></svg></g></svg></g><g></g></svg></g></svg></g></svg></g></svg></g><defs></defs></svg><rect width="395.52" height="247.2" fill="none" stroke="none" visibility="hidden"></rect></g></svg></g></svg>