<svg version="1.1" id="Layer_1" xmlns="http://www.w3.org/2000/svg" xmlns:xlink="http://www.w3.org/1999/xlink" x="0px" y="0px"
	 width="100%" viewBox="0 0 305 291" enable-background="new 0 0 305 291" xml:space="preserve">
<path fill="#000000" opacity="1.000000" stroke="none" 
	d="
M181.000000,292.000000 
	C120.666679,292.000000 60.833355,292.000000 1.000024,292.000000 
	C1.000016,195.000031 1.000016,98.000053 1.000008,1.000063 
	C102.666618,1.000042 204.333237,1.000042 305.999878,1.000021 
	C305.999939,97.999939 305.999939,194.999878 305.999969,291.999908 
	C264.500000,292.000000 223.000000,292.000000 181.000000,292.000000 
M282.089325,137.285202 
	C282.089325,137.285202 281.843964,137.173065 281.843964,137.173065 
	C281.843964,137.173065 281.982452,136.908875 281.734985,136.155182 
	C279.188477,131.708344 276.649567,127.257149 274.093842,122.815620 
	C269.367676,114.602127 264.691071,106.359138 259.866852,98.203568 
	C258.224213,95.426628 256.146210,95.133705 253.206665,97.057579 
	C246.249268,101.610992 239.036041,105.773537 231.244080,110.079750 
	C229.796753,111.043243 228.349426,112.006737 227.003342,112.993690 
	C227.003342,112.993690 227.026779,112.892464 226.307159,113.024132 
	C224.152634,114.657730 221.998093,116.291328 219.954391,117.953506 
	C219.954391,117.953506 219.982941,117.842682 219.308731,117.554749 
	C218.172638,118.367439 217.036560,119.180130 216.008423,120.011818 
	C216.008423,120.011818 216.027466,119.903854 215.328445,120.005524 
	C213.266968,121.326828 211.205475,122.648140 208.709763,124.407455 
	C205.728180,126.783272 206.879684,129.529465 208.451477,131.858093 
	C212.831955,138.347931 217.464249,144.667816 222.166367,151.754562 
	C225.094788,156.505844 228.023209,161.257126 231.029251,166.742310 
	C235.015732,173.231995 239.002213,179.721664 243.118988,186.895401 
	C244.075272,188.814743 244.775711,190.938065 246.082901,192.577637 
	C246.878799,193.575912 248.833450,194.599121 249.886032,194.294174 
	C258.461853,191.809601 267.114105,189.440079 275.414795,186.195648 
	C284.022766,182.831100 289.607513,176.240158 292.565216,166.622803 
	C294.972168,159.707779 294.071991,153.421417 289.000214,148.001038 
	C289.000214,148.001038 289.075226,148.011948 289.036133,147.286514 
	C287.686829,145.178497 286.337524,143.070480 284.965454,141.025925 
	C284.965454,141.025925 285.030823,141.042435 284.784149,140.739883 
	C284.537476,140.370697 284.290771,140.001511 283.142792,138.357086 
	C282.835754,137.936768 282.528717,137.516434 282.089325,137.285202 
M169.339676,95.140930 
	C168.211258,95.751091 167.082825,96.361252 166.006165,96.986313 
	C166.006165,96.986313 165.973083,96.943710 165.305054,97.113174 
	C163.888214,98.326813 162.471359,99.540451 161.054520,100.754089 
	C162.019806,101.108307 162.985107,101.462532 164.884888,101.886314 
	C182.276199,102.828979 199.669205,103.741943 217.057541,104.736679 
	C221.045776,104.964836 224.355423,104.206093 226.389175,99.632622 
	C226.615585,99.085258 226.841995,98.537895 227.002853,98.006714 
	C227.002853,98.006714 227.025436,98.070328 227.573120,97.666122 
	C230.976456,92.040817 234.527542,86.498360 237.741989,80.767105 
	C241.013885,74.933464 243.954346,68.913918 246.983032,62.986351 
	C246.983032,62.986351 246.990845,63.043697 247.525940,62.627686 
	C249.783615,59.225552 252.061615,55.836689 254.292480,52.417061 
	C256.064209,49.701263 255.418335,48.441879 251.482895,49.288258 
	C247.850952,51.290340 243.974960,52.957199 240.648483,55.378880 
	C236.438080,58.444035 234.222076,56.884968 232.068771,53.022747 
	C228.269058,46.207535 224.283585,39.495087 220.327850,32.767864 
	C216.021927,25.445097 209.500320,20.581726 201.211258,20.160095 
	C187.787796,19.477297 174.299988,20.059988 159.929123,20.068224 
	C152.980042,20.447987 145.848251,18.961262 139.059387,20.977779 
	C139.046082,21.445580 139.032776,21.913380 139.019470,22.381182 
	C140.014420,22.897623 141.009354,23.414064 142.366776,24.495562 
	C150.583374,35.309494 158.799973,46.123428 167.272598,57.599106 
	C170.457520,63.966652 173.620712,70.345192 176.833923,76.698425 
	C179.632950,82.232735 181.663254,87.637352 175.001221,92.002861 
	C175.001221,92.002861 174.994247,91.953285 174.340210,92.117455 
	C172.887115,93.062355 171.434021,94.007256 169.971176,94.960480 
	C169.971176,94.960480 169.959503,94.966385 169.339676,95.140930 
M123.006767,19.994642 
	C123.006767,19.994642 123.071800,19.968121 122.627342,19.323298 
	C116.522682,17.223312 110.650894,17.586689 104.576385,21.448265 
	C101.292969,24.395954 97.345177,26.877337 94.875420,30.396120 
	C90.744286,36.281944 87.556808,42.830105 83.264763,49.068207 
	C79.997520,53.383549 76.595505,57.606091 73.529068,62.059692 
	C72.294350,63.852955 71.795120,66.152626 70.569679,68.745888 
	C68.916481,71.618126 67.130791,74.423386 65.637810,77.376625 
	C62.584618,83.416054 62.778946,84.434898 68.260574,87.786461 
	C80.292519,95.143028 92.328568,102.501289 104.535156,109.561096 
	C113.847244,114.946854 117.006226,113.337387 119.893593,102.494736 
	C119.935791,102.336243 119.926628,102.164078 120.433617,101.556870 
	C120.969795,100.374779 121.505981,99.192688 121.993523,97.996056 
	C121.993523,97.996056 122.019821,98.039474 122.659813,97.799698 
	C124.589943,95.596062 126.776588,93.564201 128.393036,91.150497 
	C131.156418,87.024200 133.571762,82.664162 136.116791,78.392464 
	C141.877655,68.723152 147.705292,59.091755 153.289139,49.321144 
	C154.012405,48.055569 154.182068,45.355446 153.370697,44.516148 
	C148.793945,39.781918 143.839096,35.413197 139.011612,30.988791 
	C139.011612,30.988791 139.080521,30.987301 138.864532,30.348858 
	C137.233047,28.928614 135.601562,27.508368 133.723984,25.434013 
	C130.476364,23.952374 127.228752,22.470736 123.811554,20.504387 
	C123.534752,20.312674 123.257950,20.120960 123.006767,19.994642 
M44.005615,108.152428 
	C36.009796,107.719414 28.013975,107.286400 20.018154,106.853386 
	C19.958488,107.342308 19.898823,107.831238 19.839159,108.320160 
	C20.535019,108.614128 21.230879,108.908096 22.253458,109.776421 
	C26.490519,112.664513 30.894222,115.346382 34.869328,118.558640 
	C36.165474,119.606049 37.445492,122.610466 36.855942,123.741371 
	C32.894791,131.339767 28.714899,138.861954 24.031324,146.033615 
	C20.477453,151.475433 18.350088,156.981750 20.662323,163.227371 
	C22.429018,167.999420 24.956928,172.489639 27.376789,177.464096 
	C27.563759,177.682770 27.778324,177.869797 28.020634,177.972870 
	C28.020634,177.972870 27.969416,177.983414 28.150284,178.687378 
	C32.150517,186.909439 36.100765,195.156677 40.211933,203.322891 
	C40.747963,204.387619 42.111805,205.035614 43.363838,206.559158 
	C44.829506,210.074554 46.154434,213.658646 47.822170,217.075409 
	C48.616589,218.702957 50.063255,220.012131 51.214470,221.465515 
	C52.489235,219.891418 54.195564,218.502884 54.965759,216.711807 
	C58.757706,207.893814 62.301315,198.969025 66.398811,189.560379 
	C69.341270,184.730484 72.283730,179.900574 75.749146,174.671951 
	C80.189842,168.825272 84.630547,162.978592 89.675293,156.914688 
	C91.524307,157.384109 93.534561,157.537521 95.191666,158.383057 
	C99.896759,160.783829 104.457603,163.467255 109.392044,166.477997 
	C110.099014,166.685333 110.805984,166.892670 111.512962,167.100006 
	C111.402695,165.870148 111.617088,164.491898 111.133080,163.432846 
	C104.685745,149.325653 98.242134,135.214600 91.550591,121.222626 
	C89.809814,117.582680 87.219009,114.349251 85.003807,110.983398 
	C85.003807,110.983398 85.046768,111.019760 84.782639,110.640457 
	C84.585213,110.397942 84.345200,110.209740 83.128456,110.047768 
	C78.373459,109.732498 73.618462,109.417236 68.031647,109.021004 
	C60.324738,108.755020 52.617828,108.489037 44.005615,108.152428 
M144.947876,242.198074 
	C144.943222,238.808075 144.938583,235.418091 145.323715,231.294052 
	C145.873810,222.707458 146.519348,214.124847 146.878204,205.530273 
	C146.936722,204.129318 145.728287,202.675461 144.192261,201.148376 
	C128.258072,200.410889 112.320747,199.733978 96.390930,198.911652 
	C87.769806,198.466629 79.166534,197.579468 70.543152,197.354706 
	C68.803497,197.309372 65.929382,198.983765 65.419571,200.488922 
	C62.568306,208.907104 59.574089,217.394150 58.065773,226.106461 
	C57.143963,231.430984 57.602612,237.667740 59.546623,242.677902 
	C63.868614,253.816681 72.720917,258.854187 84.924347,259.128143 
	C98.689598,259.437164 112.425865,260.916687 126.183640,261.738068 
	C131.780533,262.072235 137.400848,262.014069 143.651688,261.595825 
	C143.800018,258.773743 143.948334,255.951645 144.606979,252.466476 
	C144.680084,249.286758 144.753189,246.107025 144.947876,242.198074 
M179.867188,200.447556 
	C175.497833,208.267105 171.143646,216.095200 166.751450,223.901901 
	C165.055588,226.916138 165.059387,229.562805 167.021393,232.702087 
	C176.066544,247.174606 184.795288,261.844543 193.787994,276.350433 
	C195.343948,278.860260 197.625717,280.920197 199.572220,283.187927 
	C200.067108,282.949188 200.561996,282.710480 201.056885,282.471741 
	C200.677872,277.085663 200.487259,271.677551 199.860794,266.320404 
	C199.350708,261.958313 201.088715,260.167358 205.316803,260.004456 
	C212.962387,259.709900 220.597702,259.141418 228.243744,258.867493 
	C236.373535,258.576263 243.239807,256.256927 247.384506,248.539474 
	C252.407990,239.185684 257.674255,229.962326 262.702850,220.611221 
	C266.953308,212.707153 271.058685,204.723633 275.105225,196.713120 
	C275.623962,195.686234 275.401520,194.284973 275.522400,193.057129 
	C274.191650,193.122040 272.812164,192.984268 271.539368,193.290222 
	C267.862091,194.174194 264.270355,195.456100 260.566193,196.175873 
	C255.516388,197.157089 250.306152,197.399231 245.318954,198.599319 
	C231.206406,201.995300 217.213928,199.179123 203.211761,198.001984 
	C201.717163,197.876328 199.555389,195.205460 199.247925,193.445450 
	C198.394577,188.560349 198.386444,183.530350 197.979736,178.562912 
	C197.845367,176.921875 197.513916,175.296967 197.272568,173.664688 
	C194.559631,175.864044 193.073212,178.205124 191.665695,180.592712 
	C187.877670,187.018402 184.123322,193.463959 179.867188,200.447556 
z"/>
<path fill="#232222" opacity="1.000000" stroke="none" 
	d="
M180.111389,200.174591 
	C184.123322,193.463959 187.877670,187.018402 191.665695,180.592712 
	C193.073212,178.205124 194.559631,175.864044 197.272568,173.664688 
	C197.513916,175.296967 197.845367,176.921875 197.979736,178.562912 
	C198.386444,183.530350 198.394577,188.560349 199.247925,193.445450 
	C199.555389,195.205460 201.717163,197.876328 203.211761,198.001984 
	C217.213928,199.179123 231.206406,201.995300 245.318954,198.599319 
	C250.306152,197.399231 255.516388,197.157089 260.566193,196.175873 
	C264.270355,195.456100 267.862091,194.174194 271.539368,193.290222 
	C272.812164,192.984268 274.191650,193.122040 275.522400,193.057129 
	C275.401520,194.284973 275.623962,195.686234 275.105225,196.713120 
	C271.058685,204.723633 266.953308,212.707153 262.702850,220.611221 
	C257.674255,229.962326 252.407990,239.185684 247.384506,248.539474 
	C243.239807,256.256927 236.373535,258.576263 228.243744,258.867493 
	C220.597702,259.141418 212.962387,259.709900 205.316803,260.004456 
	C201.088715,260.167358 199.350708,261.958313 199.860794,266.320404 
	C200.487259,271.677551 200.677872,277.085663 201.056885,282.471741 
	C200.561996,282.710480 200.067108,282.949188 199.572220,283.187927 
	C197.625717,280.920197 195.343948,278.860260 193.787994,276.350433 
	C184.795288,261.844543 176.066544,247.174606 167.021393,232.702087 
	C165.059387,229.562805 165.055588,226.916138 166.751450,223.901901 
	C171.143646,216.095200 175.497833,208.267105 180.111389,200.174591 
z"/>
<path fill="#222222" opacity="1.000000" stroke="none" 
	d="
M160.839340,20.108345 
	C174.299988,20.059988 187.787796,19.477297 201.211258,20.160095 
	C209.500320,20.581726 216.021927,25.445097 220.327850,32.767864 
	C224.283585,39.495087 228.269058,46.207535 232.068771,53.022747 
	C234.222076,56.884968 236.438080,58.444035 240.648483,55.378880 
	C243.974960,52.957199 247.850952,51.290340 251.857788,49.407417 
	C251.662262,51.179741 251.149445,52.855621 250.508682,54.481071 
	C249.377151,57.351479 248.167694,60.191158 246.990845,63.043697 
	C246.990845,63.043697 246.983032,62.986351 246.730621,63.167519 
	C243.787613,67.087402 240.661102,70.591942 238.499878,74.615051 
	C234.383850,82.277039 230.819092,90.235161 227.025436,98.070328 
	C227.025436,98.070328 227.002853,98.006714 226.868866,98.123108 
	C226.479919,98.846016 226.224976,99.452522 225.970032,100.059036 
	C224.355423,104.206093 221.045776,104.964836 217.057541,104.736679 
	C199.669205,103.741943 182.276199,102.828979 164.544403,101.551086 
	C164.793655,99.791801 165.383362,98.367752 165.973083,96.943710 
	C165.973083,96.943710 166.006165,96.986313 166.310181,96.922050 
	C167.729309,96.227318 168.844406,95.596848 169.959503,94.966385 
	C169.959503,94.966385 169.971176,94.960480 170.337860,94.926208 
	C172.134445,93.912384 173.564346,92.932831 174.994247,91.953285 
	C174.994247,91.953285 175.001221,92.002861 175.387314,91.978607 
	C179.504562,91.987701 181.727737,90.511223 181.923492,86.433128 
	C182.213013,80.400909 172.206192,60.357353 167.016571,56.937363 
	C158.799973,46.123428 150.583374,35.309494 142.384338,23.915920 
	C144.807281,22.566523 147.164001,21.488678 149.629471,21.099224 
	C153.326035,20.515303 157.098907,20.414566 160.839340,20.108345 
z"/>
<path fill="#232222" opacity="1.000000" stroke="none" 
	d="
M109.075241,166.039413 
	C104.457603,163.467255 99.896759,160.783829 95.191666,158.383057 
	C93.534561,157.537521 91.524307,157.384109 89.265404,156.776810 
	C86.661812,153.663727 85.309837,156.233795 84.415359,157.628159 
	C80.776352,163.300827 77.387032,169.133652 73.640068,175.104645 
	C70.006042,179.781525 65.369232,183.622574 65.932587,190.081940 
	C62.301315,198.969025 58.757706,207.893814 54.965759,216.711807 
	C54.195564,218.502884 52.489235,219.891418 51.214470,221.465515 
	C50.063255,220.012131 48.616589,218.702957 47.822170,217.075409 
	C46.154434,213.658646 44.829506,210.074554 43.178040,205.847046 
	C40.056717,198.642822 37.345043,192.035294 34.084709,185.710632 
	C32.607719,182.845459 30.041504,180.541794 27.969418,177.983414 
	C27.969416,177.983414 28.020634,177.972870 27.878164,177.841583 
	C27.545227,177.502747 27.348740,177.301056 27.146231,177.105225 
	C24.956928,172.489639 22.429018,167.999420 20.662323,163.227371 
	C18.350088,156.981750 20.477453,151.475433 24.031324,146.033615 
	C28.714899,138.861954 32.894791,131.339767 36.855942,123.741371 
	C37.445492,122.610466 36.165474,119.606049 34.869328,118.558640 
	C30.894222,115.346382 26.490519,112.664513 22.466850,109.329735 
	C24.453218,108.619324 26.230282,108.108368 27.998413,108.137604 
	C33.600750,108.230209 39.199753,108.524612 45.267052,108.778191 
	C53.443859,108.910919 61.153660,109.006439 68.863464,109.101967 
	C73.618462,109.417236 78.373459,109.732498 83.755585,110.221786 
	C84.600349,110.607750 84.821701,110.815735 85.046768,111.019760 
	C85.046768,111.019760 85.003807,110.983398 85.066971,111.335938 
	C88.444656,119.593590 91.636307,127.553085 95.104172,135.390350 
	C99.647079,145.657196 104.408058,155.827560 109.075241,166.039413 
z"/>
<path fill="#222222" opacity="1.000000" stroke="none" 
	d="
M143.010498,262.134399 
	C137.400848,262.014069 131.780533,262.072235 126.183640,261.738068 
	C112.425865,260.916687 98.689598,259.437164 84.924347,259.128143 
	C72.720917,258.854187 63.868614,253.816681 59.546623,242.677902 
	C57.602612,237.667740 57.143963,231.430984 58.065773,226.106461 
	C59.574089,217.394150 62.568306,208.907104 65.419571,200.488922 
	C65.929382,198.983765 68.803497,197.309372 70.543152,197.354706 
	C79.166534,197.579468 87.769806,198.466629 96.390930,198.911652 
	C112.320747,199.733978 128.258072,200.410889 144.624390,201.647644 
	C144.399551,218.803329 143.742599,235.459747 143.050110,252.561829 
	C143.013229,256.049774 143.011871,259.092102 143.010498,262.134399 
z"/>
<path fill="#222222" opacity="1.000000" stroke="none" 
	d="
M291.967377,167.144653 
	C289.607513,176.240158 284.022766,182.831100 275.414795,186.195648 
	C267.114105,189.440079 258.461853,191.809601 249.886032,194.294174 
	C248.833450,194.599121 246.878799,193.575912 246.082901,192.577637 
	C244.775711,190.938065 244.075272,188.814743 243.019333,186.154388 
	C239.262314,178.631546 235.604950,171.849716 231.819214,164.738129 
	C228.459610,159.957184 225.228363,155.505997 221.997101,151.054810 
	C217.464249,144.667816 212.831955,138.347931 208.451477,131.858093 
	C206.879684,129.529465 205.728180,126.783272 209.278107,124.186646 
	C211.906784,122.611839 213.967117,121.257843 216.027466,119.903854 
	C216.027466,119.903854 216.008423,120.011818 216.302902,120.034866 
	C217.725906,119.319504 218.854416,118.581093 219.982941,117.842682 
	C219.982941,117.842682 219.954391,117.953506 220.253098,117.916824 
	C222.710129,116.217575 224.868454,114.555023 227.026779,112.892471 
	C227.026779,112.892464 227.003342,112.993690 227.290436,113.093498 
	C229.027100,112.160233 230.476669,111.127159 231.926239,110.094093 
	C239.036041,105.773537 246.249268,101.610992 253.206665,97.057579 
	C256.146210,95.133705 258.224213,95.426628 259.866852,98.203568 
	C264.691071,106.359138 269.367676,114.602127 274.093842,122.815620 
	C276.649567,127.257149 279.188477,131.708344 281.872833,136.483566 
	C282.010681,136.811951 282.282379,136.888824 282.282379,136.888824 
	C282.282379,136.888824 282.221680,137.096100 282.221680,137.096100 
	C282.528717,137.516434 282.835754,137.936768 283.672668,138.967331 
	C284.478638,140.065872 284.754730,140.554153 285.030823,141.042435 
	C285.030823,141.042435 284.965454,141.025925 285.001984,141.372284 
	C286.384064,143.816422 287.729645,145.914185 289.075226,148.011963 
	C289.075226,148.011948 289.000214,148.001038 289.023743,148.372375 
	C290.020599,154.877365 290.993988,161.011017 291.967377,167.144653 
z"/>
<path fill="#222222" opacity="1.000000" stroke="none" 
	d="
M119.941437,101.998291 
	C119.926628,102.164078 119.935791,102.336243 119.893593,102.494736 
	C117.006226,113.337387 113.847244,114.946854 104.535156,109.561096 
	C92.328568,102.501289 80.292519,95.143028 68.260574,87.786461 
	C62.778946,84.434898 62.584618,83.416054 65.637810,77.376625 
	C67.130791,74.423386 68.916481,71.618126 71.068314,68.320213 
	C75.702019,61.629524 79.837082,55.364506 83.972153,49.099487 
	C87.556808,42.830105 90.744286,36.281944 94.875420,30.396120 
	C97.345177,26.877337 101.292969,24.395954 105.246277,21.213463 
	C111.634720,20.641815 117.353256,20.304968 123.071800,19.968121 
	C123.071800,19.968121 123.006767,19.994642 123.126602,20.168682 
	C123.455879,20.598488 123.700783,20.813946 123.981140,20.989098 
	C127.228752,22.470736 130.476364,23.952374 133.955902,26.081228 
	C135.818726,28.148062 137.449631,29.567682 139.080521,30.987301 
	C139.080521,30.987301 139.011612,30.988791 139.126831,31.291782 
	C142.523895,35.474472 145.673141,39.477444 149.129318,43.195087 
	C151.923553,46.200726 151.658127,48.765289 149.508804,52.068069 
	C145.005569,58.988010 140.913681,66.174942 136.614548,73.228882 
	C135.404327,75.214600 133.959518,77.060593 132.797562,79.071915 
	C129.160019,85.368462 125.606133,91.713333 122.019821,98.039474 
	C122.019821,98.039474 121.993523,97.996056 121.781036,98.135651 
	C121.026176,99.516266 120.483803,100.757278 119.941437,101.998291 
z"/>
<path fill="#1C283D" opacity="1.000000" stroke="none" 
	d="
M122.339821,97.919586 
	C125.606133,91.713333 129.160019,85.368462 132.797562,79.071915 
	C133.959518,77.060593 135.404327,75.214600 136.614548,73.228882 
	C140.913681,66.174942 145.005569,58.988010 149.508804,52.068069 
	C151.658127,48.765289 151.923553,46.200726 149.129318,43.195087 
	C145.673141,39.477444 142.523895,35.474472 139.127594,31.257334 
	C143.839096,35.413197 148.793945,39.781918 153.370697,44.516148 
	C154.182068,45.355446 154.012405,48.055569 153.289139,49.321144 
	C147.705292,59.091755 141.877655,68.723152 136.116791,78.392464 
	C133.571762,82.664162 131.156418,87.024200 128.393036,91.150497 
	C126.776588,93.564201 124.589943,95.596062 122.339821,97.919586 
z"/>
<path fill="#132133" opacity="1.000000" stroke="none" 
	d="
M109.233643,166.258698 
	C104.408058,155.827560 99.647079,145.657196 95.104172,135.390350 
	C91.636307,127.553085 88.444656,119.593590 85.074387,111.308792 
	C87.219009,114.349251 89.809814,117.582680 91.550591,121.222626 
	C98.242134,135.214600 104.685745,149.325653 111.133080,163.432846 
	C111.617088,164.491898 111.402695,165.870148 111.512962,167.100006 
	C110.805984,166.892670 110.099014,166.685333 109.233643,166.258698 
z"/>
<path fill="#36200F" opacity="1.000000" stroke="none" 
	d="
M167.144592,57.268234 
	C172.206192,60.357353 182.213013,80.400909 181.923492,86.433128 
	C181.727737,90.511223 179.504562,91.987701 175.363663,91.970383 
	C181.663254,87.637352 179.632950,82.232735 176.833923,76.698425 
	C173.620712,70.345192 170.457520,63.966652 167.144592,57.268234 
z"/>
<path fill="#1B2A3F" opacity="1.000000" stroke="none" 
	d="
M227.299286,97.868225 
	C230.819092,90.235161 234.383850,82.277039 238.499878,74.615051 
	C240.661102,70.591942 243.787613,67.087402 246.759064,63.162231 
	C243.954346,68.913918 241.013885,74.933464 237.741989,80.767105 
	C234.527542,86.498360 230.976456,92.040817 227.299286,97.868225 
z"/>
<path fill="#223A58" opacity="1.000000" stroke="none" 
	d="
M143.085632,252.116180 
	C143.742599,235.459747 144.399551,218.803329 145.080994,201.696472 
	C145.728287,202.675461 146.936722,204.129318 146.878204,205.530273 
	C146.519348,214.124847 145.873810,222.707458 145.011414,232.034836 
	C144.741516,236.159515 144.783905,239.543411 144.826294,242.927307 
	C144.753189,246.107025 144.680084,249.286758 144.184387,252.627533 
	C143.539551,252.561295 143.314163,252.337158 143.085632,252.116180 
z"/>
<path fill="#1A2433" opacity="1.000000" stroke="none" 
	d="
M73.905655,174.907440 
	C77.387032,169.133652 80.776352,163.300827 84.415359,157.628159 
	C85.309837,156.233795 86.661812,153.663727 88.963379,156.885422 
	C84.630547,162.978592 80.189842,168.825272 75.157364,174.831039 
	C74.345596,174.962555 74.125626,174.934998 73.905655,174.907440 
z"/>
<path fill="#392313" opacity="1.000000" stroke="none" 
	d="
M28.059853,178.335388 
	C30.041504,180.541794 32.607719,182.845459 34.084709,185.710632 
	C37.345043,192.035294 40.056717,198.642822 43.042233,205.505783 
	C42.111805,205.035614 40.747963,204.387619 40.211933,203.322891 
	C36.100765,195.156677 32.150517,186.909439 28.059853,178.335388 
z"/>
<path fill="#3E2210" opacity="1.000000" stroke="none" 
	d="
M231.947586,165.067871 
	C235.604950,171.849716 239.262314,178.631546 242.954193,185.812378 
	C239.002213,179.721664 235.015732,173.231995 231.157745,166.219269 
	C231.507217,165.487320 231.727661,165.277878 231.947586,165.067871 
z"/>
<path fill="#9E7859" opacity="1.000000" stroke="none" 
	d="
M83.618454,49.083847 
	C79.837082,55.364506 75.702019,61.629524 71.264053,68.058182 
	C71.795120,66.152626 72.294350,63.852955 73.529068,62.059692 
	C76.595505,57.606091 79.997520,53.383549 83.618454,49.083847 
z"/>
<path fill="#32455F" opacity="1.000000" stroke="none" 
	d="
M292.266296,166.883728 
	C290.993988,161.011017 290.020599,154.877365 289.029144,148.334869 
	C294.071991,153.421417 294.972168,159.707779 292.266296,166.883728 
z"/>
<path fill="#352010" opacity="1.000000" stroke="none" 
	d="
M231.819214,164.738129 
	C231.727661,165.277878 231.507217,165.487320 231.118927,165.852325 
	C228.023209,161.257126 225.094788,156.505844 222.081726,151.404694 
	C225.228363,155.505997 228.459610,159.957184 231.819214,164.738129 
z"/>
<path fill="#19243F" opacity="1.000000" stroke="none" 
	d="
M73.640060,175.104645 
	C74.125626,174.934998 74.345596,174.962555 74.895889,175.030396 
	C72.283730,179.900574 69.341270,184.730484 66.165695,189.821167 
	C65.369232,183.622574 70.006042,179.781525 73.640060,175.104645 
z"/>
<path fill="#1B2A3F" opacity="1.000000" stroke="none" 
	d="
M247.258392,62.835693 
	C248.167694,60.191158 249.377151,57.351479 250.508682,54.481071 
	C251.149445,52.855621 251.662262,51.179741 252.157166,49.222801 
	C255.418335,48.441879 256.064209,49.701263 254.292480,52.417061 
	C252.061615,55.836689 249.783615,59.225552 247.258392,62.835693 
z"/>
<path fill="#373737" opacity="1.000000" stroke="none" 
	d="
M68.447556,109.061485 
	C61.153660,109.006439 53.443859,108.910919 45.290379,108.648087 
	C44.846703,108.480789 44.910919,108.223053 44.910919,108.223053 
	C52.617828,108.489037 60.324738,108.755020 68.447556,109.061485 
z"/>
<path fill="#514D4B" opacity="1.000000" stroke="none" 
	d="
M44.458267,108.187744 
	C44.910919,108.223053 44.846703,108.480789 44.823372,108.610886 
	C39.199753,108.524612 33.600750,108.230209 27.998413,108.137604 
	C26.230282,108.108368 24.453218,108.619324 22.303492,109.042557 
	C21.230879,108.908096 20.535019,108.614128 19.839159,108.320160 
	C19.898823,107.831238 19.958488,107.342308 20.018154,106.853386 
	C28.013975,107.286400 36.009796,107.719414 44.458267,108.187744 
z"/>
<path fill="#383634" opacity="1.000000" stroke="none" 
	d="
M160.384232,20.088284 
	C157.098907,20.414566 153.326035,20.515303 149.629471,21.099224 
	C147.164001,21.488678 144.807281,22.566523 142.203094,23.633392 
	C141.009354,23.414064 140.014420,22.897623 139.019470,22.381182 
	C139.032776,21.913380 139.046082,21.445580 139.059387,20.977779 
	C145.848251,18.961262 152.980042,20.447987 160.384232,20.088284 
z"/>
<path fill="#4B4949" opacity="1.000000" stroke="none" 
	d="
M122.849571,19.645710 
	C117.353256,20.304968 111.634720,20.641815 105.491028,20.981073 
	C110.650894,17.586689 116.522682,17.223312 122.849571,19.645710 
z"/>
<path fill="#36200F" opacity="1.000000" stroke="none" 
	d="
M165.639069,97.028442 
	C165.383362,98.367752 164.793655,99.791801 164.077164,101.516296 
	C162.985107,101.462532 162.019806,101.108307 161.054520,100.754089 
	C162.471359,99.540451 163.888214,98.326813 165.639069,97.028442 
z"/>
<path fill="#32455F" opacity="1.000000" stroke="none" 
	d="
M289.055664,147.649231 
	C287.729645,145.914185 286.384064,143.816422 285.013367,141.340561 
	C286.337524,143.070480 287.686829,145.178497 289.055664,147.649231 
z"/>
<path fill="#1C283D" opacity="1.000000" stroke="none" 
	d="
M138.972534,30.668079 
	C137.449631,29.567682 135.818726,28.148062 134.078949,26.408283 
	C135.601562,27.508368 137.233047,28.928614 138.972534,30.668079 
z"/>
<path fill="#796353" opacity="1.000000" stroke="none" 
	d="
M226.666962,112.958298 
	C224.868454,114.555023 222.710129,116.217575 220.197693,117.902527 
	C221.998093,116.291328 224.152634,114.657730 226.666962,112.958298 
z"/>
<path fill="#2C435C" opacity="1.000000" stroke="none" 
	d="
M144.887085,242.562683 
	C144.783905,239.543411 144.741516,236.159515 144.816528,232.401855 
	C144.938583,235.418091 144.943222,238.808075 144.887085,242.562683 
z"/>
<path fill="#36200F" opacity="1.000000" stroke="none" 
	d="
M174.667236,92.035370 
	C173.564346,92.932831 172.134445,93.912384 170.342743,94.922043 
	C171.434021,94.007256 172.887115,93.062355 174.667236,92.035370 
z"/>
<path fill="#796353" opacity="1.000000" stroke="none" 
	d="
M215.677948,119.954681 
	C213.967117,121.257843 211.906784,122.611839 209.495224,123.967636 
	C211.205475,122.648140 213.266968,121.326828 215.677948,119.954681 
z"/>
<path fill="#1C283D" opacity="1.000000" stroke="none" 
	d="
M120.187531,101.777580 
	C120.483803,100.757278 121.026176,99.516266 121.805351,98.142929 
	C121.505981,99.192688 120.969795,100.374779 120.187531,101.777580 
z"/>
<path fill="#2C435C" opacity="1.000000" stroke="none" 
	d="
M143.050110,252.561829 
	C143.314163,252.337158 143.539551,252.561295 143.929214,252.959076 
	C143.948334,255.951645 143.800018,258.773743 143.331100,261.865112 
	C143.011871,259.092102 143.013229,256.049774 143.050110,252.561829 
z"/>
<path fill="#796353" opacity="1.000000" stroke="none" 
	d="
M231.585159,110.086914 
	C230.476669,111.127159 229.027100,112.160233 227.239822,113.081772 
	C228.349426,112.006737 229.796753,111.043243 231.585159,110.086914 
z"/>
<path fill="#36200F" opacity="1.000000" stroke="none" 
	d="
M169.649597,95.053650 
	C168.844406,95.596848 167.729309,96.227318 166.284302,96.914597 
	C167.082825,96.361252 168.211258,95.751091 169.649597,95.053650 
z"/>
<path fill="#796353" opacity="1.000000" stroke="none" 
	d="
M219.645844,117.698715 
	C218.854416,118.581093 217.725906,119.319504 216.248932,120.025360 
	C217.036560,119.180130 218.172638,118.367439 219.645844,117.698715 
z"/>
<path fill="#32455F" opacity="1.000000" stroke="none" 
	d="
M284.907471,140.891159 
	C284.754730,140.554153 284.478638,140.065872 284.123322,139.604950 
	C284.290771,140.001511 284.537476,140.370697 284.907471,140.891159 
z"/>
<path fill="#1B2A3F" opacity="1.000000" stroke="none" 
	d="
M226.179596,99.845825 
	C226.224976,99.452522 226.479919,98.846016 226.901642,98.115021 
	C226.841995,98.537895 226.615585,99.085258 226.179596,99.845825 
z"/>
<path fill="#32455F" opacity="1.000000" stroke="none" 
	d="
M282.155518,137.190643 
	C282.221680,137.096100 282.282379,136.888824 282.282379,136.888824 
	C282.282379,136.888824 282.010681,136.811951 281.996582,136.860413 
	C281.982452,136.908875 281.843964,137.173065 281.843964,137.173065 
	C281.843964,137.173065 282.089325,137.285202 282.155518,137.190643 
z"/>
<path fill="#132133" opacity="1.000000" stroke="none" 
	d="
M84.914703,110.830109 
	C84.821701,110.815735 84.600349,110.607750 84.222656,110.235825 
	C84.345200,110.209740 84.585213,110.397942 84.914703,110.830109 
z"/>
<path fill="#392313" opacity="1.000000" stroke="none" 
	d="
M27.261509,177.284668 
	C27.348740,177.301056 27.545227,177.502747 27.878090,177.867737 
	C27.778324,177.869797 27.563759,177.682770 27.261509,177.284668 
z"/>
<path fill="#4B4949" opacity="1.000000" stroke="none" 
	d="
M123.896347,20.746742 
	C123.700783,20.813946 123.455879,20.598488 123.113792,20.135986 
	C123.257950,20.120960 123.534752,20.312674 123.896347,20.746742 
z"/>
</svg>